<svg xmlns="http://www.w3.org/2000/svg" width="64" height="64" viewBox="0 0 24 24" fill="none" stroke="#CBD5E1" stroke-width="2" stroke-linecap="round" stroke-linejoin="round">
  <path d="M 5 19 C 7.2 19, 9 17.2, 9 15 C 9 12.8, 7.2 11, 5 11 C 2.8 11, 1 12.8, 1 15 C 1 17.2, 2.8 19, 5 19 Z" />
  <path d="M 19 19 C 21.2 19, 23 17.2, 23 15 C 23 12.8, 21.2 11, 19 11 C 16.8 11, 15 12.8, 15 15 C 15 17.2, 16.8 19, 19 19 Z" />
  <path d="M 5 15 H 15" />
  <path d="M 15 15 L 12 6 L 9 11" />
  <path d="M 12 6 H 14" />
</svg>